<svg width="104" height="104" viewBox="0 0 104 104" fill="none" xmlns="http://www.w3.org/2000/svg">
<g clip-path="url(#clip0_100_63)">
<path d="M30.1951 60.7163L29.4813 59.4799C26.8352 54.8966 20.9744 53.3262 16.3911 55.9723L12.1964 58.3942C11.3223 58.8989 10.8038 59.7813 10.7245 60.7163H30.1951Z" fill="#224A22"/>
<path d="M90.4865 60.7163C89.8218 58.4238 88.3075 56.3741 86.077 55.0865L81.8823 52.6646C80.463 51.8452 78.6485 52.3315 77.8291 53.7507L75.4073 57.9455C74.8954 58.8321 74.5432 59.7667 74.338 60.7163H90.4865Z" fill="#224A22"/>
<path d="M23.4954 101.582C23.274 102.844 24.245 104 25.5259 104H31.3812C32.3151 104 33.114 103.329 33.2755 102.409L36.5042 84.0074L26.9593 81.8395L23.4954 101.582Z" fill="#F6A96C"/>
<path d="M80.5074 101.582L76.7709 80.2868L67.9721 86.7074L70.7271 102.409C70.8886 103.329 71.6875 104 72.6214 104H78.4767C79.758 104 80.7288 102.844 80.5074 101.582Z" fill="#F6A96C"/>
<path d="M35.4526 90.001L36.5042 84.0072L26.9593 81.8395L25.5273 90.001H35.4526Z" fill="#EA9B58"/>
<path d="M78.4753 90.001L76.7709 80.2868L67.9723 86.7071L68.5502 90.001H78.4753Z" fill="#EA9B58"/>
<path d="M57.7309 0H52.8872C46.7508 0 41.7586 4.99241 41.7586 11.1288V15.9725C41.7586 18.461 43.7832 20.4858 46.2718 20.4858H51.1156C57.252 20.4858 62.2444 15.4934 62.2444 9.35695V4.51323C62.2442 2.02455 60.2196 0 57.7309 0Z" fill="#C7DDB5"/>
<path d="M42.823 9.07177L40.4011 4.87703C39.157 2.72188 36.391 1.98088 34.2361 3.22502L30.0411 5.64688C24.7268 8.71508 22.8995 15.5346 25.9677 20.849L28.3895 25.0437C28.9922 26.0878 29.9656 26.8344 31.1299 27.1464C31.5187 27.2506 31.9133 27.3022 32.3054 27.3022C33.0874 27.3022 33.8593 27.0971 34.5546 26.6957L38.7493 24.2738C41.3237 22.7876 43.1652 20.3877 43.9345 17.5165C44.7041 14.6451 44.3092 11.646 42.823 9.07177Z" fill="#224A22"/>
<path d="M25.861 18.5354L21.6663 16.1135C19.5109 14.8692 16.7456 15.6104 15.5012 17.7655L13.0792 21.9603C10.011 27.2746 11.8383 34.0941 17.1526 37.1623L18.3923 37.8781C18.6359 38.0187 18.9016 38.0855 19.164 38.0855C19.6982 38.0855 20.218 37.8083 20.5044 37.3122L22.1207 38.2454C23.2919 38.9216 24.731 38.7067 25.6591 37.8138C25.6916 37.8359 25.7241 37.8582 25.7586 37.8781C26.498 38.3051 27.4436 38.0516 27.8705 37.3122L29.9345 33.7374C33.0025 28.4233 31.1752 21.6036 25.861 18.5354Z" fill="#C7DDB5"/>
<path d="M33.2422 62.9015L30.8203 58.7068C27.7521 53.3924 20.9328 51.5651 15.6183 54.6333L11.4235 57.0552C10.3795 57.6578 9.63277 58.6312 9.32077 59.7955C9.00877 60.9601 9.16883 62.1762 9.77171 63.2202L12.1936 67.415C14.2526 70.9812 18.0007 72.9771 21.8499 72.9771C23.7365 72.9771 25.6475 72.4976 27.3956 71.4882L31.5906 69.0664C33.7453 67.8224 34.4865 65.0567 33.2422 62.9015Z" fill="#224A22"/>
<path d="M44.4786 69.9437L40.2839 67.5218C34.9695 64.4536 28.15 66.2809 25.0818 71.5953L22.66 75.79C22.0573 76.8339 21.897 78.0502 22.209 79.2147C22.521 80.3792 23.2679 81.3524 24.3118 81.9551L28.5065 84.3769C30.2548 85.3862 32.1652 85.8656 34.0522 85.8656C37.901 85.8656 41.6499 83.8695 43.7088 80.3034L46.1309 76.1085C47.375 73.9536 46.6338 71.188 44.4786 69.9437Z" fill="#C7DDB5"/>
<path d="M57.7309 70.4243H52.8872C46.7508 70.4243 41.7586 75.4167 41.7586 81.5531V86.3968C41.7586 88.8853 43.7832 90.91 46.2718 90.91H51.1156C57.252 90.91 62.2444 85.9176 62.2444 79.7812V74.9375C62.2442 72.4488 60.2196 70.4243 57.7309 70.4243Z" fill="#224A22"/>
<path d="M78.0351 70.0609L75.6133 65.8661C75.0106 64.8221 74.0372 64.0754 72.8729 63.7634C71.7086 63.4514 70.4923 63.6115 69.4482 64.2143L65.2535 66.6362C59.9391 69.7044 58.1118 76.5241 61.18 81.8383L63.6019 86.033C64.4369 87.4793 65.9569 88.2887 67.5179 88.2887C68.2831 88.2887 69.058 88.0941 69.7669 87.6848L73.9616 85.263C76.5361 83.7767 78.3776 81.3768 79.1468 78.5056C79.9163 75.6342 79.5214 72.6353 78.0351 70.0609Z" fill="#C7DDB5"/>
<path d="M86.8501 53.7475L85.8337 53.1607C85.0939 52.7337 84.1488 52.987 83.7218 53.7266L81.8825 52.6646C80.6654 51.962 79.1594 52.2218 78.2378 53.2045C78.2153 53.1899 78.1936 53.1743 78.17 53.1607C77.4304 52.7335 76.4849 52.987 76.0581 53.7266L74.0687 57.1724C71.0005 62.4867 72.8278 69.3062 78.142 72.3745L82.3369 74.7963C83.0324 75.1979 83.8041 75.403 84.5861 75.4028C84.9781 75.4028 85.3728 75.3512 85.7616 75.247C86.9259 74.935 87.8993 74.1884 88.5019 73.1443L90.9238 68.9496C93.9918 63.6352 92.1645 56.8157 86.8501 53.7475Z" fill="#224A22"/>
<path d="M94.2313 27.6894L91.8094 23.4947C88.7412 18.1803 81.9219 16.353 76.6073 19.4212L72.4126 21.8431C71.3685 22.4457 70.6218 23.4191 70.3098 24.5834C69.9978 25.7479 70.1579 26.9642 70.7608 28.0081L73.1826 32.2028C75.2417 35.7691 78.9898 37.765 82.839 37.765C84.7256 37.765 86.6366 37.2854 88.3847 36.2761L92.5797 33.8542C94.7346 32.6103 95.4756 29.8446 94.2313 27.6894Z" fill="#C7DDB5"/>
<path d="M79.6908 8.95456L75.4961 6.5327C70.1815 3.46429 63.362 5.29181 60.294 10.6062L57.8721 14.8009C57.2695 15.845 57.1092 17.0611 57.4212 18.2256C57.7332 19.3901 58.4801 20.3633 59.5239 20.966L63.7187 23.3878C65.467 24.3971 67.3774 24.8765 69.2644 24.8765C73.1132 24.8765 76.8621 22.8804 78.921 19.3143L81.3428 15.1194C82.587 12.9645 81.846 10.1989 79.6908 8.95456Z" fill="#224A22"/>
<path d="M13.2862 54.4302H90.7164C92.1999 54.4302 93.4024 53.2277 93.4024 51.7443V39.2379C93.4024 37.7544 92.1999 36.5519 90.7164 36.5519H13.2862C11.8028 36.5519 10.6003 37.7544 10.6003 39.2379V51.7443C10.6005 53.2277 11.803 54.4302 13.2862 54.4302Z" fill="#CFE6E6"/>
<path d="M74.1963 47.0373H29.8065C28.9526 47.0373 28.2606 46.345 28.2606 45.4913C28.2606 44.6373 28.9528 43.9453 29.8065 43.9453H74.1965C75.0504 43.9453 75.7427 44.6375 75.7427 45.4913C75.7425 46.345 75.0502 47.0373 74.1963 47.0373Z" fill="#224A22"/>
</g>
<defs>
<clipPath id="clip0_100_63">
<rect width="104" height="104" fill="white"/>
</clipPath>
</defs>
</svg>
