<svg width="104" height="104" viewBox="0 0 104 104" fill="none" xmlns="http://www.w3.org/2000/svg">
<path d="M36.0458 14.8102H67.9543V20.4977H36.0458V14.8102Z" fill="#224A22"/>
<path d="M82.2656 40.5275C82.2142 41.6619 82.103 42.7929 81.9325 43.9156C81.708 45.3946 81.3877 46.8575 80.9737 48.295C80.7706 49.0181 80.535 49.7412 80.2831 50.4562C80.1044 50.9762 79.9093 51.4881 79.6981 52C78.9018 53.8037 78.1787 55.5262 77.5287 57.1837C75.7662 61.5957 74.3482 66.1376 73.2875 70.7687C72.6862 73.4581 72.2719 75.9931 71.9712 78.4469C71.6462 81.0306 71.4593 83.5331 71.3131 86.06C71.2481 87.0106 71.1994 87.9775 71.1506 88.9444C71.0593 90.9229 70.2977 92.8114 68.9909 94.2998C67.6842 95.7882 65.91 96.7878 63.96 97.1344C60.45 97.7437 56.42 97.5081 52 97.4269C47.58 97.5081 43.55 97.7437 40.04 97.1344C38.0899 96.7878 36.3158 95.7882 35.009 94.2998C33.7023 92.8114 32.9407 90.9229 32.8494 88.9444C32.8006 87.9775 32.7519 87.0106 32.6869 86.06C32.5406 83.5331 32.3537 81.0306 32.0287 78.4469C31.7281 75.9931 31.3137 73.4581 30.7125 70.7687C29.6518 66.1376 28.2338 61.5957 26.4712 57.1837C25.8212 55.5262 25.0981 53.8037 24.3019 52C24.0906 51.4881 23.8956 50.9762 23.7169 50.4562C23.465 49.7412 23.2294 49.0181 23.0262 48.295C22.6122 46.8575 22.292 45.3946 22.0675 43.9156C21.8969 42.7929 21.7858 41.6619 21.7344 40.5275C21.6937 39.7881 21.6775 39.0487 21.6937 38.3256C21.7206 36.5672 21.9138 34.8152 22.2706 33.0931C22.3519 32.7139 22.4412 32.3402 22.5387 31.9719C23.1579 29.4505 24.3228 27.0958 25.9512 25.0737C27.1754 23.5949 28.7204 22.4144 30.4689 21.6218C32.2174 20.8292 34.1235 20.4453 36.0425 20.4994H67.9575C69.8765 20.4453 71.7826 20.8292 73.5311 21.6218C75.2796 22.4144 76.8246 23.5949 78.0487 25.0737C79.6772 27.0958 80.8421 29.4505 81.4612 31.9719C81.5587 32.3375 81.6481 32.7112 81.7293 33.0931C82.0862 34.8152 82.2794 36.5672 82.3062 38.3256C82.3225 39.0487 82.3062 39.7881 82.2656 40.5275Z" fill="#C7DDB5"/>
<path d="M70.6135 14.8102H33.3864C32.7399 14.8102 32.1199 14.5534 31.6628 14.0963C31.2057 13.6392 30.9489 13.0192 30.9489 12.3727C30.9485 11.527 31.1148 10.6895 31.4382 9.90806C31.7616 9.12661 32.2358 8.41652 32.8337 7.81835C33.4315 7.22018 34.1414 6.74565 34.9227 6.42185C35.704 6.09806 36.5414 5.93135 37.3871 5.93124H66.6119C68.3197 5.93124 69.9575 6.60964 71.165 7.8172C72.3726 9.02476 73.051 10.6626 73.051 12.3703C73.0513 12.6906 72.9885 13.0078 72.8661 13.3038C72.7438 13.5999 72.5643 13.8689 72.3379 14.0955C72.1115 14.3221 71.8427 14.5018 71.5468 14.6245C71.2509 14.7471 70.9338 14.8102 70.6135 14.8102Z" fill="#C7DDB5"/>
<path d="M82.2656 40.5275C82.2142 41.6619 82.103 42.7929 81.9325 43.9156C81.708 45.3946 81.3877 46.8575 80.9737 48.295C71.4005 49.9023 61.707 50.6852 52 50.635C42.2929 50.6852 32.5994 49.9023 23.0262 48.295C22.6122 46.8575 22.292 45.3946 22.0675 43.9156C21.8969 42.7929 21.7858 41.6619 21.7344 40.5275C21.6937 39.7881 21.6775 39.0487 21.6937 38.3256C21.7206 36.5672 21.9138 34.8152 22.2706 33.0931C32.0888 34.7859 42.0371 35.6097 52 35.555C61.9629 35.6097 71.9112 34.7859 81.7293 33.0931C82.0862 34.8152 82.2794 36.5672 82.3062 38.3256C82.3225 39.0487 82.3062 39.7881 82.2656 40.5275Z" fill="#CFE6E6"/>
<path d="M82.2656 40.5275C72.2753 42.2956 62.1454 43.155 52 43.095C41.8546 43.155 31.7246 42.2956 21.7344 40.5275C21.6937 39.7881 21.6775 39.0487 21.6937 38.3256C21.7206 36.5672 21.9138 34.8152 22.2706 33.0931C32.0888 34.7859 42.0371 35.6097 52 35.555C61.9629 35.6097 71.9112 34.7859 81.7293 33.0931C82.0862 34.8152 82.2794 36.5672 82.3062 38.3256C82.3225 39.0487 82.3062 39.7881 82.2656 40.5275Z" fill="#224A22"/>
<path d="M73.2875 70.7687C72.6863 73.4581 72.2719 75.9931 71.9713 78.4469C71.6463 81.0306 71.4594 83.5331 71.3131 86.06C64.8975 86.7314 58.4507 87.0622 52 87.0512C45.5493 87.0622 39.1026 86.7314 32.6869 86.06C32.5406 83.5331 32.3538 81.0306 32.0288 78.4469C31.7281 75.9931 31.3138 73.4581 30.7125 70.7687C37.779 71.583 44.8869 71.9845 52 71.9712C59.1132 71.9845 66.2211 71.583 73.2875 70.7687Z" fill="#CFE6E6"/>
<path d="M73.2875 70.7687C72.6863 73.4581 72.2719 75.9931 71.9713 78.4469C65.3389 79.1692 58.6716 79.5245 52 79.5112C45.3284 79.5245 38.6612 79.1692 32.0288 78.4469C31.7281 75.9931 31.3138 73.4581 30.7125 70.7687C37.779 71.583 44.8869 71.9845 52 71.9712C59.1132 71.9845 66.2211 71.583 73.2875 70.7687Z" fill="#224A22"/>
</svg>
