<svg width="104" height="104" viewBox="0 0 104 104" fill="none" xmlns="http://www.w3.org/2000/svg">
<g clip-path="url(#clip0_102_153)">
<path d="M67.948 46.7198C66.2653 46.7198 64.9011 45.3556 64.9011 43.6729V33.5162C64.9011 31.8335 66.2653 30.4694 67.948 30.4694C69.6307 30.4694 70.9949 31.8335 70.9949 33.5162V43.6729C70.9949 45.3556 69.6307 46.7198 67.948 46.7198Z" fill="#FAE2C0"/>
<path d="M67.948 30.4694V46.7198C69.6307 46.7198 70.9949 45.3556 70.9949 43.6729V33.5162C70.9949 31.8335 69.6307 30.4694 67.948 30.4694Z" fill="#FAE2C0"/>
<path d="M77.802 40.626H58.0938C53.0536 40.626 48.9531 44.7265 48.9531 49.7666V100.953C48.9531 102.636 50.3173 104 52 104L86.9426 104V49.7666C86.9426 44.7265 82.8423 40.626 77.802 40.626Z" fill="#224A22"/>
<path d="M77.802 40.626H67.9478V104L86.9426 104V49.7666C86.9426 44.7265 82.8423 40.626 77.802 40.626Z" fill="#224A22"/>
<path d="M73.6301 18.5378C72.0644 15.8387 70.5196 13.5974 70.4546 13.5033C69.8856 12.6797 68.9486 12.1881 67.9476 12.1881C66.9468 12.1881 66.0096 12.6797 65.4407 13.5033C65.3755 13.5974 63.8309 15.8387 62.2652 18.5378C59.1653 23.8812 58.807 26.1676 58.807 27.4225C58.807 32.4626 62.9073 36.5631 67.9476 36.5631C72.9878 36.5631 77.0883 32.4626 77.0883 27.4225C77.0885 26.1676 76.7299 23.8812 73.6301 18.5378Z" fill="#C7DDB5"/>
<path d="M73.6301 18.5378C72.0644 15.8387 70.5196 13.5974 70.4546 13.5033C69.8856 12.6797 68.9486 12.1881 67.9476 12.1881V36.5631C72.9878 36.5631 77.0883 32.4626 77.0883 27.4225C77.0885 26.1676 76.7299 23.8812 73.6301 18.5378Z" fill="#C7DDB5"/>
<path d="M102.615 76.8546C101.017 74.0868 98.2161 72.2284 95.0926 71.7868C93.1487 69.3028 90.1392 67.8068 86.9426 67.8068C83.7465 67.8068 80.737 69.3026 78.7924 71.787C75.6692 72.2284 72.8691 74.0868 71.2707 76.8552C69.6727 79.6232 69.4635 82.9778 70.6427 85.9034C69.4635 88.829 69.6727 92.1834 71.2707 94.9512C72.8691 97.7194 75.6692 99.5777 78.7924 100.02C80.7366 102.504 83.7463 104 86.9426 104C90.1392 104 93.1485 102.504 95.0926 100.02C98.2165 99.5782 101.017 97.7198 102.615 94.9514C104.213 92.1834 104.422 88.8292 103.243 85.9034C104.422 82.9772 104.213 79.6229 102.615 76.8546Z" fill="#CFE6E6"/>
<path d="M89.6738 83.1722H89.6736V83.172C89.6736 81.6638 88.4507 80.4409 86.9427 80.4409C85.4343 80.4409 84.2117 81.6638 84.2117 83.172V83.1722H84.2113C82.7029 83.1722 81.4801 84.395 81.4801 85.9032C81.4801 87.4116 82.7031 88.6342 84.2113 88.6342H84.2117V88.6344C84.2117 90.1428 85.4345 91.3654 86.9427 91.3654C88.4509 91.3654 89.6736 90.1426 89.6736 88.6344V88.6342H89.6738C91.1822 88.6342 92.4048 87.4114 92.4048 85.9032C92.405 84.3948 91.1822 83.1722 89.6738 83.1722Z" fill="#224A22"/>
<path d="M36.0521 34.5317C34.3694 34.5317 33.0052 33.1675 33.0052 31.4848V21.3281C33.0052 19.6454 34.3694 18.2812 36.0521 18.2812C37.7348 18.2812 39.099 19.6454 39.099 21.3281V31.4848C39.099 33.1675 37.7348 34.5317 36.0521 34.5317Z" fill="#FAE2C0"/>
<path d="M36.0521 18.2812V34.5317C37.7348 34.5317 39.099 33.1675 39.099 31.4848V21.3281C39.099 19.6454 37.7348 18.2812 36.0521 18.2812Z" fill="#FAE2C0"/>
<path d="M41.7345 6.34969C40.1689 3.65056 38.6241 1.40928 38.5591 1.31523C37.9901 0.491563 37.0531 0 36.0521 0C35.0511 0 34.1141 0.491563 33.5452 1.31523C33.4802 1.40928 31.9354 3.65056 30.3697 6.34969C27.27 11.6931 26.9115 13.9795 26.9115 15.2344C26.9115 20.2745 31.0118 24.375 36.0521 24.375C41.0925 24.375 45.1927 20.2745 45.1927 15.2344C45.1927 13.9795 44.8344 11.6931 41.7345 6.34969Z" fill="#224A22"/>
<path d="M41.7345 6.34969C40.1689 3.65056 38.6241 1.40928 38.5591 1.31523C37.9901 0.491563 37.0531 0 36.0521 0V24.375C41.0923 24.375 45.1927 20.2745 45.1927 15.2344C45.1927 13.9795 44.8344 11.6931 41.7345 6.34969Z" fill="#224A22"/>
<path d="M45.9062 28.4379H26.198C21.1579 28.4379 17.0574 32.5384 17.0574 37.5785V104L52 104C53.6824 104 55.0468 102.636 55.0468 100.953V37.5785C55.0468 32.5384 50.9463 28.4379 45.9062 28.4379Z" fill="#C7DDB5"/>
<path d="M45.9062 28.4379H36.052V104H52C53.6824 104 55.0468 102.636 55.0468 100.953V37.5785C55.0468 32.5384 50.9463 28.4379 45.9062 28.4379Z" fill="#C7DDB5"/>
<path d="M32.7293 76.8546C31.1309 74.0868 28.3304 72.2284 25.207 71.7868C23.2631 69.3028 20.2536 67.8068 17.057 67.8068C13.8608 67.8068 10.8513 69.3026 8.90682 71.787C5.78357 72.2284 2.98349 74.0868 1.3851 76.8552C-0.212884 79.6232 -0.4219 82.9778 0.757038 85.9034C-0.422103 88.829 -0.212884 92.1834 1.3851 94.9512C2.98349 97.7194 5.78357 99.5777 8.90682 100.02C10.8509 102.504 13.8606 104 17.057 104C20.2536 104 23.2629 102.504 25.207 100.02C28.3309 99.5782 31.1311 97.7198 32.7293 94.9514C34.3273 92.1834 34.5367 88.8292 33.3574 85.9034C34.5367 82.9772 34.3273 79.6229 32.7293 76.8546Z" fill="#CFE6E6"/>
<path d="M19.7884 83.1722H19.788V83.172C19.788 81.6638 18.5652 80.4409 17.0574 80.4409C15.549 80.4409 14.3264 81.6638 14.3264 83.172V83.1722H14.326C12.8176 83.1722 11.595 84.395 11.595 85.9032C11.595 87.4116 12.8178 88.6342 14.326 88.6342H14.3264V88.6344C14.3264 90.1428 15.5492 91.3654 17.0574 91.3654C18.5654 91.3654 19.788 90.1426 19.788 88.6344V88.6342H19.7884C21.2968 88.6342 22.5194 87.4114 22.5194 85.9032C22.5194 84.3948 21.2966 83.1722 19.7884 83.1722Z" fill="#224A22"/>
</g>
<defs>
<clipPath id="clip0_102_153">
<rect width="104" height="104" fill="white"/>
</clipPath>
</defs>
</svg>
