<svg width="104" height="104" viewBox="0 0 104 104" fill="none" xmlns="http://www.w3.org/2000/svg">
<path d="M37.6196 63.5147C45.5617 63.5147 52 57.0764 52 49.1343C52 41.1922 45.5617 34.7538 37.6196 34.7538C29.6775 34.7538 23.2391 41.1922 23.2391 49.1343C23.2391 57.0764 29.6775 63.5147 37.6196 63.5147Z" fill="#CFE6E6"/>
<path d="M66.3807 63.5147C74.3228 63.5147 80.7611 57.0764 80.7611 49.1343C80.7611 41.1922 74.3228 34.7538 66.3807 34.7538C58.4386 34.7538 52.0002 41.1922 52.0002 49.1343C52.0002 57.0764 58.4386 63.5147 66.3807 63.5147Z" fill="#CFE6E6"/>
<path d="M75.0484 39.5639C77.377 35.1508 77.6039 29.8204 75.66 25.2003L75.0484 23.7465H28.9518L28.3402 25.2003C26.3963 29.8206 26.6234 35.1508 28.9518 39.5639H75.0484Z" fill="#CFE6E6"/>
<path d="M16.0441 101.969H87.956L84.2384 84.3163C83.2502 79.6243 79.5635 75.9711 74.8626 75.0262L64.451 72.9332C62.2444 72.4896 60.501 70.7973 59.992 68.605L58.2106 60.9324H45.7895L44.0081 68.605C43.4991 70.7973 41.7556 72.4898 39.5491 72.9332L29.1375 75.0262C24.4366 75.9711 20.7499 79.6243 19.7617 84.3163L16.0441 101.969Z" fill="#EA9B58"/>
<path d="M84.2384 84.3164C83.2502 79.6244 79.5635 75.9714 74.8626 75.0262L64.451 72.9332C62.2444 72.4896 60.501 70.7974 59.992 68.605C57.0176 73.7892 46.9824 73.7892 44.0081 68.605C43.4991 70.7974 41.7556 72.4898 39.5491 72.9332L29.1375 75.0262C24.4366 75.9712 20.7499 79.6244 19.7617 84.3164L16.0441 101.969H87.956L84.2384 84.3164Z" fill="#CFE6E6"/>
<path d="M44.0081 68.605C43.499 70.7974 41.7556 72.4898 39.5491 72.9332L29.6077 74.9316C30.2234 76.5749 31.2526 78.6941 32.9451 80.8248C35.984 84.6511 41.7568 89.2125 52 89.2125C62.2432 89.2125 68.016 84.6511 71.055 80.8248C72.7472 78.6941 73.7767 76.5749 74.3921 74.9316L64.4508 72.9332C62.2442 72.4896 60.5008 70.7974 59.9918 68.605C57.0176 73.7892 46.9824 73.7892 44.0081 68.605Z" fill="#224A22"/>
<path d="M39.5491 72.9334L29.1375 75.0264C24.4366 75.9713 20.7499 79.6245 19.7617 84.3165L16.0441 101.969H39.6338V72.9131C39.6053 72.9192 39.5777 72.9275 39.5491 72.9334Z" fill="#C7DDB5"/>
<path d="M39.6338 72.9131C39.6053 72.9192 39.5777 72.9275 39.5491 72.9334L29.6077 74.9317C30.2234 76.575 31.2526 78.6942 32.9451 80.825C34.4417 82.7094 36.6036 84.7711 39.6338 86.3795V72.9131Z" fill="#BED1AF"/>
<path d="M84.2384 84.3163C83.2502 79.6244 79.5635 75.9714 74.8626 75.0262L64.451 72.9332C64.4224 72.9275 64.395 72.9192 64.3665 72.9129V101.969H87.956L84.2384 84.3163Z" fill="#C7DDB5"/>
<path d="M71.055 80.825C72.7472 78.6942 73.7766 76.575 74.3921 74.9317L64.4508 72.9334C64.4221 72.9277 64.3947 72.9194 64.3663 72.9131V86.3795C67.3967 84.7711 69.5583 82.7094 71.055 80.825Z" fill="#BED1AF"/>
<path d="M69.225 70.9513C69.225 70.9513 67.1221 83.1189 52 83.1189C36.878 83.1189 34.775 70.9513 34.775 70.9513L44.0081 68.6052C46.9822 73.7894 57.0176 73.7894 59.992 68.6052L69.225 70.9513Z" fill="#224A22"/>
<path d="M32.1698 48.2911C28.2421 48.2911 25.0582 45.1071 25.0582 41.1795C25.0582 37.2519 28.2421 34.0679 32.1698 34.0679H71.8303C75.758 34.0679 78.9419 37.2519 78.9419 41.1795C78.9419 45.1071 75.758 48.2911 71.8303 48.2911H32.1698Z" fill="#EA9B58"/>
<path d="M52 64.0617C42.5033 64.0617 34.8047 56.3631 34.8047 46.8664V34.0679C41.2732 34.0673 51.0845 28.1921 52 20.0576C52.9153 28.1919 62.7267 34.0673 69.1954 34.0679V46.8664C69.1954 56.3633 61.4967 64.0617 52 64.0617Z" fill="#F6A96C"/>
<path d="M75.0484 12.8889H63.3088L52 2.03125L40.6913 12.8889H28.9518V23.7465H75.0484V12.8889Z" fill="#224A22"/>
<path d="M52 55.925C50.0563 55.925 48.1126 55.3225 46.4539 54.1174C45.5463 53.4578 45.3452 52.1877 46.0046 51.2801C46.6641 50.3727 47.9345 50.1714 48.8418 50.8308C50.7309 52.2033 53.2692 52.2033 55.1582 50.8308C56.0662 50.1712 57.3361 50.3727 57.9955 51.2801C58.6548 52.1877 58.4535 53.458 57.5462 54.1174C55.8874 55.3223 53.9437 55.925 52 55.925Z" fill="#EA9B58"/>
<path d="M52.0001 19.0781C50.8782 19.0781 49.9688 18.1687 49.9688 17.0469V13.8732C49.9688 12.7514 50.8782 11.842 52.0001 11.842C53.1219 11.842 54.0313 12.7514 54.0313 13.8732V17.0469C54.0313 18.1687 53.1219 19.0781 52.0001 19.0781Z" fill="#C7DDB5"/>
</svg>
