<svg width="104" height="104" viewBox="0 0 104 104" fill="none" xmlns="http://www.w3.org/2000/svg">
<g clip-path="url(#clip0_104_188)">
<path d="M73.0132 100.514C70.9501 95.5055 65.3548 91.3407 65.3548 91.3407L51.9999 86.0543L38.645 91.3407C38.645 91.3407 33.0498 95.5055 30.9867 100.514C30.3024 102.175 31.513 104 33.3094 104H70.6907C72.4871 104 73.6974 102.175 73.0132 100.514Z" fill="#C7DDB5"/>
<path d="M39.3569 100.514C41.42 95.5055 47.0153 91.3407 47.0153 91.3407L56.185 87.7109L51.9999 86.0543L38.645 91.3407C38.645 91.3407 33.0498 95.5055 30.9867 100.514C30.3024 102.175 31.513 104 33.3094 104H41.6797C39.883 104 38.6727 102.175 39.3569 100.514Z" fill="#BED1AF"/>
<path d="M19.0125 31.4523V36.7628C19.0125 36.7628 18.1952 64.6306 38.6451 91.3404H65.3549C85.8046 64.6306 84.9875 36.7628 84.9875 36.7628V31.4523L52 22.1241L19.0125 31.4523Z" fill="#C7DDB5"/>
<path d="M27.3828 36.763V31.4525L56.1851 23.3077L52 22.1241L19.0125 31.4525V36.763C19.0125 36.763 18.1952 64.6308 38.6451 91.3406H47.0153C26.5656 64.6306 27.3828 36.763 27.3828 36.763Z" fill="#BED1AF"/>
<path d="M46.1199 33.2321C47.419 29.7817 45.7847 25.7881 42.3613 24.4859C41.9091 24.3189 41.4062 24.1847 40.8946 24.0922C41.2905 23.7503 41.6567 23.3848 41.9545 23.0129C44.2529 20.1432 44.0855 16.1772 41.2158 13.8787C38.3461 11.5802 34.4384 12.2827 32.1402 15.1524C31.8424 15.5241 31.5656 15.9614 31.3184 16.4224C31.1163 15.9432 30.8756 15.482 30.6141 15.0771C28.5956 12.0205 24.3414 11.2982 21.258 13.3196C18.1747 15.3412 17.3303 19.4731 19.3517 22.5565C19.6133 22.9612 19.9404 23.3452 20.3091 23.7382C19.7855 23.7825 19.2797 23.8656 18.8183 23.9845C15.2537 24.9613 13.1779 28.6197 14.1398 32.1726C15.1047 35.7524 18.5049 37.5727 22.031 36.6135C22.5042 36.4798 22.9714 36.2927 23.4475 36.064C23.3282 36.5785 23.2476 37.0753 23.2207 37.5664C23.0579 41.2437 25.6001 44.1339 29.2773 44.2967C32.9694 44.4714 36.0712 41.6348 36.2458 37.9427C36.2608 37.4666 36.2313 36.9548 36.1604 36.4341C36.6243 36.7081 37.0704 36.9433 37.5226 37.1102C40.9731 38.4091 44.8208 36.6827 46.1199 33.2321Z" fill="#224A22"/>
<path d="M57.8801 33.2321C56.581 29.7817 58.2153 25.7881 61.6387 24.4859C62.0909 24.3189 62.5938 24.1847 63.1054 24.0922C62.7095 23.7503 62.3433 23.3848 62.0455 23.0129C59.7471 20.1432 59.9145 16.1772 62.7842 13.8787C65.6539 11.5802 69.5616 12.2827 71.8598 15.1524C72.1576 15.5241 72.4344 15.9614 72.6816 16.4224C72.8837 15.9432 73.1243 15.482 73.3859 15.0771C75.4044 12.0205 79.6586 11.2982 82.7419 13.3196C85.8253 15.3412 86.6697 19.4731 84.6483 22.5565C84.3867 22.9612 84.0596 23.3452 83.6909 23.7382C84.2145 23.7825 84.7202 23.8656 85.1817 23.9845C88.7463 24.9613 90.8221 28.6197 89.8602 32.1726C88.8953 35.7524 85.4951 37.5727 81.969 36.6135C81.4958 36.4798 81.0286 36.2927 80.5525 36.064C80.6718 36.5785 80.7523 37.0753 80.7793 37.5664C80.9421 41.2437 78.3999 44.1339 74.7226 44.2967C71.0305 44.4714 67.9287 41.6348 67.7542 37.9427C67.7392 37.4666 67.7687 36.9548 67.8396 36.4341C67.3757 36.7081 66.9295 36.9433 66.4773 37.1102C63.0269 38.4091 59.1791 36.6827 57.8801 33.2321Z" fill="#224A22"/>
<path d="M68.5173 12.4865C67.3319 8.8513 63.4199 6.67797 59.8046 7.84353C59.3302 8.00172 58.8363 8.21893 58.3622 8.47569C58.4609 7.94208 58.5204 7.4089 58.5204 6.91485C58.5202 3.10179 55.8134 0 52.0004 0C48.1873 0 45.4798 3.1018 45.4798 6.91506C45.4798 7.4089 45.5392 7.94229 45.638 8.4759C45.1638 8.21914 44.6699 8.00172 44.1956 7.84373C40.58 6.67818 36.668 8.85151 35.4828 12.4867C34.2974 16.1221 36.2928 20.0142 39.9282 21.1997C40.4024 21.3577 40.9161 21.4564 41.4692 21.5355C41.0741 21.9109 40.7186 22.306 40.4221 22.7013C38.1698 25.8031 38.8612 30.1102 41.9433 32.3624C45.0451 34.6345 48.9777 33.9036 51.2102 30.8411C51.5067 30.4262 51.7635 29.9719 52.0006 29.4778C52.2377 29.9717 52.4944 30.4262 52.7909 30.8411C55.0432 33.9232 58.9749 34.6146 62.057 32.3624C65.1588 30.1102 65.8307 25.8031 63.5783 22.7013C63.2818 22.3062 62.9262 21.9109 62.5312 21.5355C63.0842 21.4566 63.5979 21.3577 64.0721 21.1997C67.7073 20.0138 69.7028 16.1219 68.5173 12.4865Z" fill="#CFE6E6"/>
<path d="M52 22.1242C54.4085 22.1242 56.3609 20.1717 56.3609 17.7633C56.3609 15.3548 54.4085 13.4024 52 13.4024C49.5916 13.4024 47.6392 15.3548 47.6392 17.7633C47.6392 20.1717 49.5916 22.1242 52 22.1242Z" fill="#224A22"/>
<path d="M30.5082 31.4523C32.8306 31.4523 34.7132 29.5697 34.7132 27.2473C34.7132 24.925 32.8306 23.0424 30.5082 23.0424C28.1859 23.0424 26.3032 24.925 26.3032 27.2473C26.3032 29.5697 28.1859 31.4523 30.5082 31.4523Z" fill="#C7DDB5"/>
<path d="M73.4917 31.4523C75.8141 31.4523 77.6967 29.5697 77.6967 27.2473C77.6967 24.925 75.8141 23.0424 73.4917 23.0424C71.1694 23.0424 69.2867 24.925 69.2867 27.2473C69.2867 29.5697 71.1694 31.4523 73.4917 31.4523Z" fill="#C7DDB5"/>
</g>
<defs>
<clipPath id="clip0_104_188">
<rect width="104" height="104" fill="white"/>
</clipPath>
</defs>
</svg>
