<svg width="104" height="104" viewBox="0 0 104 104" fill="none" xmlns="http://www.w3.org/2000/svg">
<g clip-path="url(#clip0_105_240)">
<path d="M97.7224 104H6.27778C2.81064 104 0 101.19 0 97.7225V34.9459C0 31.4787 2.81064 28.6683 6.27758 28.6683H97.7222C101.189 28.6683 104 31.4789 104 34.9459V97.7225C104 101.19 101.189 104 97.7224 104Z" fill="#224A22"/>
<path d="M97.7224 28.668H91.4448C94.912 28.668 97.7224 31.4787 97.7224 34.9456V97.7222C97.7224 101.189 94.9118 104 91.4448 104H97.7224C101.189 104 104 101.19 104 97.7224V34.9458C104 31.4787 101.189 28.668 97.7224 28.668Z" fill="#1D401D"/>
<path d="M52 97.304H7.09033C6.64163 97.304 6.27783 96.9402 6.27783 96.4915V87.5917H52V97.304Z" fill="#BED1AF"/>
<path d="M96.9099 97.304H52V87.5917H97.7224V96.4915C97.7224 96.9402 97.3586 97.304 96.9099 97.304Z" fill="#BED1AF"/>
<path d="M52 91.0262H7.09033C6.64163 91.0262 6.27783 90.6624 6.27783 90.2137V24.2493C6.27783 23.8006 6.64163 23.4368 7.09033 23.4368H52V91.0262Z" fill="#C7DDB5"/>
<path d="M96.9099 91.0262H52V23.4368H96.9099C97.3586 23.4368 97.7224 23.8006 97.7224 24.2493V90.2137C97.7224 90.6624 97.3586 91.0262 96.9099 91.0262Z" fill="#C7DDB5"/>
<path d="M91.1432 81.2404L52 91.0262V23.4367L90.7489 13.7495C91.2618 13.6213 91.7585 14.0091 91.7585 14.5378V80.4523C91.7587 80.825 91.5048 81.15 91.1432 81.2404Z" fill="#BED1AF"/>
<path d="M43.8746 81.1852H27.7571C26.9157 81.1852 26.2336 81.8673 26.2336 82.7086C26.2336 83.55 26.9157 84.2321 27.7571 84.2321H43.8746C44.716 84.2321 45.3981 83.55 45.3981 82.7086C45.3981 81.8673 44.716 81.1852 43.8746 81.1852Z" fill="#224A22"/>
<path d="M49.248 12.3965L41.0203 9.30721L44.0052 1.35771C44.4114 0.275867 45.6178 -0.271961 46.6998 0.134289L51.0097 1.75259C52.0916 2.15884 52.6394 3.36519 52.2332 4.44724L49.248 12.3965Z" fill="#CFE6E6"/>
<path d="M28.8204 71.5469L17.0664 67.1336L39.6586 6.96395C39.8164 6.54389 40.2848 6.33122 40.7049 6.48884L50.9377 10.331C51.3578 10.4888 51.5704 10.9572 51.4128 11.3773L28.8204 71.5469Z" fill="#1D401D"/>
<path d="M17.0664 67.1334L16.5837 80.6782C16.6936 82.5415 18.9599 83.3924 20.269 82.0619L28.8204 71.5467L17.0664 67.1334Z" fill="#CFE6E6"/>
<path d="M28.8883 35.5933L40.6401 40.0128L32.685 61.1661L20.9332 56.7466L28.8883 35.5933Z" fill="#CFE6E6"/>
</g>
<defs>
<clipPath id="clip0_105_240">
<rect width="104" height="104" fill="white"/>
</clipPath>
</defs>
</svg>
