<svg width="16" height="16" viewBox="0 0 16 16" fill="none" xmlns="http://www.w3.org/2000/svg">
<mask id="mask0_304_2413" style="mask-type:alpha" maskUnits="userSpaceOnUse" x="0" y="0" width="16" height="16">
<rect width="16" height="16" fill="#D9D9D9"/>
</mask>
<g mask="url(#mask0_304_2413)">
<path d="M3.9987 14.3334C3.53292 14.3334 3.1387 14.172 2.81603 13.8494C2.49336 13.5267 2.33203 13.1325 2.33203 12.6667V11.6027C2.33203 11.4308 2.38953 11.2874 2.50453 11.1725C2.61942 11.0575 2.76281 11 2.9347 11H4.33203V2.12436C4.33203 2.05514 4.36003 2.00881 4.41603 1.98536C4.47203 1.96181 4.52564 1.97142 4.57686 2.01419L5.0667 2.42053C5.12481 2.47008 5.18764 2.49486 5.2552 2.49486C5.32264 2.49486 5.38542 2.47008 5.44353 2.42053L6.00253 1.96419C6.06064 1.91464 6.12348 1.88986 6.19103 1.88986C6.25859 1.88986 6.32142 1.91464 6.37953 1.96419L6.93853 2.42053C6.99664 2.47008 7.05942 2.49486 7.12686 2.49486C7.19442 2.49486 7.25725 2.47008 7.31536 2.42053L7.87436 1.96419C7.93248 1.91464 7.99531 1.88986 8.06286 1.88986C8.13031 1.88986 8.19309 1.91464 8.2512 1.96419L8.8102 2.42053C8.86831 2.47008 8.93114 2.49486 8.9987 2.49486C9.06625 2.49486 9.12909 2.47008 9.1872 2.42053L9.7462 1.96419C9.80431 1.91464 9.86709 1.88986 9.93453 1.88986C10.0021 1.88986 10.0649 1.91464 10.123 1.96419L10.682 2.42053C10.7401 2.47008 10.803 2.49486 10.8705 2.49486C10.938 2.49486 11.0008 2.47008 11.0589 2.42053L11.6179 1.96419C11.676 1.91464 11.7388 1.88986 11.8064 1.88986C11.8739 1.88986 11.9368 1.91464 11.9949 1.96419L12.5539 2.42053C12.612 2.47008 12.6748 2.49486 12.7422 2.49486C12.8098 2.49486 12.8726 2.47008 12.9307 2.42053L13.4205 2.01419C13.4718 1.97142 13.5254 1.96181 13.5814 1.98536C13.6374 2.00881 13.6654 2.05514 13.6654 2.12436V12.6667C13.6654 13.1325 13.504 13.5267 13.1814 13.8494C12.8587 14.172 12.4645 14.3334 11.9987 14.3334H3.9987ZM11.9987 13.3334C12.1876 13.3334 12.3459 13.2695 12.4737 13.1417C12.6015 13.0139 12.6654 12.8556 12.6654 12.6667V3.33336H5.33203V11H10.7295C10.9013 11 11.0446 11.0575 11.1595 11.1725C11.2745 11.2874 11.332 11.4308 11.332 11.6027V12.6667C11.332 12.8556 11.3959 13.0139 11.5237 13.1417C11.6515 13.2695 11.8098 13.3334 11.9987 13.3334ZM6.62686 4.83336H9.40903C9.55081 4.83336 9.66959 4.88125 9.76536 4.97703C9.86103 5.0727 9.90886 5.19147 9.90886 5.33336C9.90886 5.47525 9.86103 5.59403 9.76536 5.6897C9.66959 5.78547 9.55081 5.83336 9.40903 5.83336H6.62686C6.48498 5.83336 6.3662 5.78547 6.27053 5.6897C6.17475 5.59403 6.12686 5.47525 6.12686 5.33336C6.12686 5.19147 6.17475 5.0727 6.27053 4.97703C6.3662 4.88125 6.48498 4.83336 6.62686 4.83336ZM6.62686 6.83336H9.40903C9.55081 6.83336 9.66959 6.88125 9.76536 6.97703C9.86103 7.0727 9.90886 7.19147 9.90886 7.33336C9.90886 7.47525 9.86103 7.59403 9.76536 7.6897C9.66959 7.78547 9.55081 7.83336 9.40903 7.83336H6.62686C6.48498 7.83336 6.3662 7.78547 6.27053 7.6897C6.17475 7.59403 6.12686 7.47525 6.12686 7.33336C6.12686 7.19147 6.17475 7.0727 6.27053 6.97703C6.3662 6.88125 6.48498 6.83336 6.62686 6.83336ZM11.2935 5.92303C11.1303 5.92303 10.9912 5.86558 10.8762 5.7507C10.7613 5.6357 10.7039 5.49658 10.7039 5.33336C10.7039 5.17014 10.7613 5.03103 10.8762 4.91603C10.9912 4.80114 11.1303 4.7437 11.2935 4.7437C11.4568 4.7437 11.5959 4.80114 11.7109 4.91603C11.8259 5.03103 11.8834 5.17014 11.8834 5.33336C11.8834 5.49658 11.8259 5.6357 11.7109 5.7507C11.5959 5.86558 11.4568 5.92303 11.2935 5.92303ZM11.2935 7.92303C11.1303 7.92303 10.9912 7.86558 10.8762 7.7507C10.7613 7.6357 10.7039 7.49658 10.7039 7.33336C10.7039 7.17014 10.7613 7.03103 10.8762 6.91603C10.9912 6.80114 11.1303 6.7437 11.2935 6.7437C11.4568 6.7437 11.5959 6.80114 11.7109 6.91603C11.8259 7.03103 11.8834 7.17014 11.8834 7.33336C11.8834 7.49658 11.8259 7.6357 11.7109 7.7507C11.5959 7.86558 11.4568 7.92303 11.2935 7.92303ZM3.9987 13.3334H10.332V12H3.33203V12.6667C3.33203 12.8556 3.39592 13.0139 3.5237 13.1417C3.65148 13.2695 3.80981 13.3334 3.9987 13.3334Z" fill="#224A22"/>
</g>
</svg>
