<svg width="16" height="16" viewBox="0 0 16 16" fill="none" xmlns="http://www.w3.org/2000/svg">
<path d="M1.32757 13.7182H2.44405L11.5038 4.65844L10.3873 3.54195L1.32757 12.6017V13.7182ZM0 15.0458V12.0503L11.6742 0.381233C11.808 0.259687 11.9557 0.165799 12.1174 0.0995676C12.2792 0.0331892 12.4488 0 12.6263 0C12.8037 0 12.9756 0.0314933 13.1418 0.094479C13.3082 0.157465 13.4555 0.257621 13.5837 0.394951L14.6645 1.48931C14.8019 1.61749 14.8997 1.765 14.9582 1.93183C15.0166 2.09866 15.0458 2.26549 15.0458 2.43233C15.0458 2.61037 15.0154 2.78022 14.9546 2.94189C14.8938 3.10371 14.7971 3.25151 14.6645 3.3853L2.99544 15.0458H0ZM10.9358 4.10993L10.3873 3.54195L11.5038 4.65844L10.9358 4.10993Z" fill="#83817C"/>
</svg>
