<svg width="24" height="24" viewBox="0 0 24 24" fill="none" xmlns="http://www.w3.org/2000/svg">
<mask id="mask0_304_731" style="mask-type:alpha" maskUnits="userSpaceOnUse" x="0" y="0" width="24" height="24">
<rect width="24" height="24" fill="#D9D9D9"/>
</mask>
<g mask="url(#mask0_304_731)">
<path d="M6 21.5C5.30133 21.5 4.71 21.258 4.226 20.774C3.742 20.29 3.5 19.6987 3.5 19V17.404C3.5 17.1462 3.58625 16.9311 3.75875 16.7588C3.93108 16.5863 4.14617 16.5 4.404 16.5H6.5V3.1865C6.5 3.08267 6.542 3.01317 6.626 2.978C6.71 2.94267 6.79042 2.95708 6.86725 3.02125L7.602 3.63075C7.68917 3.70508 7.78342 3.74225 7.88475 3.74225C7.98592 3.74225 8.08008 3.70508 8.16725 3.63075L9.00575 2.94625C9.09292 2.87192 9.18717 2.83475 9.2885 2.83475C9.38983 2.83475 9.48408 2.87192 9.57125 2.94625L10.4098 3.63075C10.4969 3.70508 10.5911 3.74225 10.6923 3.74225C10.7936 3.74225 10.8878 3.70508 10.975 3.63075L11.8135 2.94625C11.9007 2.87192 11.9949 2.83475 12.0963 2.83475C12.1974 2.83475 12.2916 2.87192 12.3787 2.94625L13.2172 3.63075C13.3044 3.70508 13.3987 3.74225 13.5 3.74225C13.6013 3.74225 13.6956 3.70508 13.7828 3.63075L14.6212 2.94625C14.7084 2.87192 14.8026 2.83475 14.9038 2.83475C15.0051 2.83475 15.0993 2.87192 15.1865 2.94625L16.025 3.63075C16.1122 3.70508 16.2064 3.74225 16.3077 3.74225C16.4089 3.74225 16.5031 3.70508 16.5903 3.63075L17.4288 2.94625C17.5159 2.87192 17.6102 2.83475 17.7115 2.83475C17.8128 2.83475 17.9071 2.87192 17.9943 2.94625L18.8328 3.63075C18.9199 3.70508 19.0141 3.74225 19.1152 3.74225C19.2166 3.74225 19.3108 3.70508 19.398 3.63075L20.1327 3.02125C20.2096 2.95708 20.29 2.94267 20.374 2.978C20.458 3.01317 20.5 3.08267 20.5 3.1865V19C20.5 19.6987 20.258 20.29 19.774 20.774C19.29 21.258 18.6987 21.5 18 21.5H6ZM18 20C18.2833 20 18.5208 19.9042 18.7125 19.7125C18.9042 19.5208 19 19.2833 19 19V5H8V16.5H16.0962C16.3539 16.5 16.5689 16.5863 16.7413 16.7588C16.9138 16.9311 17 17.1462 17 17.404V19C17 19.2833 17.0958 19.5208 17.2875 19.7125C17.4792 19.9042 17.7167 20 18 20ZM9.94225 7.25H14.1155C14.3282 7.25 14.5063 7.32183 14.65 7.4655C14.7935 7.609 14.8652 7.78717 14.8652 8C14.8652 8.21283 14.7935 8.391 14.65 8.5345C14.5063 8.67817 14.3282 8.75 14.1155 8.75H9.94225C9.72942 8.75 9.55125 8.67817 9.40775 8.5345C9.26408 8.391 9.19225 8.21283 9.19225 8C9.19225 7.78717 9.26408 7.609 9.40775 7.4655C9.55125 7.32183 9.72942 7.25 9.94225 7.25ZM9.94225 10.25H14.1155C14.3282 10.25 14.5063 10.3218 14.65 10.4655C14.7935 10.609 14.8652 10.7872 14.8652 11C14.8652 11.2128 14.7935 11.391 14.65 11.5345C14.5063 11.6782 14.3282 11.75 14.1155 11.75H9.94225C9.72942 11.75 9.55125 11.6782 9.40775 11.5345C9.26408 11.391 9.19225 11.2128 9.19225 11C9.19225 10.7872 9.26408 10.609 9.40775 10.4655C9.55125 10.3218 9.72942 10.25 9.94225 10.25ZM16.9423 8.8845C16.6974 8.8845 16.4888 8.79833 16.3163 8.626C16.1439 8.4535 16.0577 8.24483 16.0577 8C16.0577 7.75517 16.1439 7.5465 16.3163 7.374C16.4888 7.20167 16.6974 7.1155 16.9423 7.1155C17.1871 7.1155 17.3958 7.20167 17.5682 7.374C17.7407 7.5465 17.827 7.75517 17.827 8C17.827 8.24483 17.7407 8.4535 17.5682 8.626C17.3958 8.79833 17.1871 8.8845 16.9423 8.8845ZM16.9423 11.8845C16.6974 11.8845 16.4888 11.7983 16.3163 11.626C16.1439 11.4535 16.0577 11.2448 16.0577 11C16.0577 10.7552 16.1439 10.5465 16.3163 10.374C16.4888 10.2017 16.6974 10.1155 16.9423 10.1155C17.1871 10.1155 17.3958 10.2017 17.5682 10.374C17.7407 10.5465 17.827 10.7552 17.827 11C17.827 11.2448 17.7407 11.4535 17.5682 11.626C17.3958 11.7983 17.1871 11.8845 16.9423 11.8845Z" fill="#224A22"/>
</g>
</svg>
