<svg width="23" height="23" viewBox="0 0 23 23" fill="none" xmlns="http://www.w3.org/2000/svg">
<g clip-path="url(#clip0_58_886)">
<path d="M22.5192 5.92818C22.3892 5.43879 22.133 4.99211 21.7761 4.63287C21.4193 4.27362 20.9743 4.01441 20.4858 3.88118C18.6918 3.39746 11.5 3.39746 11.5 3.39746C11.5 3.39746 4.30747 3.39746 2.51419 3.88118C2.02561 4.01428 1.58059 4.27345 1.22372 4.63271C0.866853 4.99198 0.610671 5.43872 0.480844 5.92818C0 7.73368 0 11.4999 0 11.4999C0 11.4999 0 15.2669 0.480844 17.0717C0.610648 17.5611 0.866835 18.0077 1.22372 18.3669C1.5806 18.726 2.02563 18.9851 2.51419 19.118C4.30819 19.6017 11.5 19.6017 11.5 19.6017C11.5 19.6017 18.6925 19.6017 20.4858 19.118C20.9743 18.9849 21.4193 18.7259 21.7761 18.3667C22.133 18.0076 22.3892 17.561 22.5192 17.0717C23 15.2662 23 11.4999 23 11.4999C23 11.4999 23 7.73368 22.5192 5.92818ZM9.14753 14.9197V8.08012L15.1592 11.4999L9.14753 14.9197Z" fill="#224A22"/>
</g>
<defs>
<clipPath id="clip0_58_886">
<rect width="23" height="23" fill="white"/>
</clipPath>
</defs>
</svg>
