<svg width="23" height="23" viewBox="0 0 23 23" fill="none" xmlns="http://www.w3.org/2000/svg">
<path d="M11.5 1.4375C5.94263 1.4375 1.4375 5.94263 1.4375 11.5C1.4375 16.2193 4.68625 20.1789 9.06919 21.2664V14.5748H6.99416V11.5H9.06919V10.1753C9.06919 6.7505 10.6188 5.16278 13.9818 5.16278C14.6194 5.16278 15.7191 5.28784 16.169 5.41291V8.20022C15.9318 8.17506 15.5192 8.16284 15.0068 8.16284C13.3565 8.16284 12.719 8.78816 12.719 10.4125V11.5H16.0058L15.4409 14.5748H12.719V21.4885C17.7014 20.8869 21.5625 16.6441 21.5625 11.5C21.5625 5.94263 17.0574 1.4375 11.5 1.4375Z" fill="#224A22"/>
</svg>
