<svg width="23" height="23" viewBox="0 0 23 23" fill="none" xmlns="http://www.w3.org/2000/svg">
<path fill-rule="evenodd" clip-rule="evenodd" d="M18.7673 2.15625H4.23272C3.68206 2.15644 3.15402 2.37527 2.76464 2.76464C2.37527 3.15402 2.15644 3.68206 2.15625 4.23272V18.7673C2.15644 19.3179 2.37527 19.846 2.76464 20.2354C3.15402 20.6247 3.68206 20.8436 4.23272 20.8438H18.7673C19.3179 20.8436 19.846 20.6247 20.2354 20.2354C20.6247 19.846 20.8436 19.3179 20.8438 18.7673V4.23272C20.8436 3.68206 20.6247 3.15402 20.2354 2.76464C19.846 2.37527 19.3179 2.15644 18.7673 2.15625ZM7.80634 18.2483H5.01975V9.25031H7.80634V18.2483ZM6.39975 8.07228C5.48909 8.07228 4.75166 7.32909 4.75166 6.41197C4.75166 5.49484 5.48909 4.75166 6.39975 4.75166C7.31041 4.75166 8.04712 5.49484 8.04712 6.41197C8.04712 7.32909 7.30969 8.07228 6.39975 8.07228ZM18.2483 18.2483H15.4754V13.5254C15.4754 12.2303 14.9831 11.5065 13.9581 11.5065C12.8433 11.5065 12.2604 12.2597 12.2604 13.5254V18.2483H9.58813V9.25031H12.2604V10.4621C12.2604 10.4621 13.064 8.97503 14.9737 8.97503C16.8834 8.97503 18.2483 10.1401 18.2483 12.5508V18.2483Z" fill="#224A22"/>
</svg>
