<svg width="18" height="18" viewBox="0 0 18 18" fill="none" xmlns="http://www.w3.org/2000/svg">
<g clip-path="url(#clip0_1824_579)">
<path fill-rule="evenodd" clip-rule="evenodd" d="M9.26076 16.4954C8.98647 16.3572 8.66294 16.3572 8.38866 16.4954L6.95602 17.217C6.48075 17.4564 5.90136 17.2679 5.65798 16.7947L4.87472 15.2717C4.73864 15.0071 4.48859 14.8197 4.19645 14.7633L2.57722 14.4507C2.07541 14.3539 1.73502 13.884 1.79933 13.377L2.02865 11.5691C2.06425 11.2884 1.97544 11.0062 1.78553 10.7965L0.58872 9.47486C0.254289 9.10556 0.254289 8.54288 0.58872 8.17357L1.78553 6.85197C1.97544 6.64226 2.06425 6.36004 2.02865 6.07936L1.79933 4.27142C1.73502 3.76441 2.07541 3.29457 2.57722 3.19771L4.19645 2.88514C4.48859 2.82875 4.73864 2.64131 4.87472 2.37672L5.65798 0.853785C5.90136 0.380554 6.48075 0.192027 6.95602 0.431419L8.38866 1.15305C8.66294 1.2912 8.98647 1.2912 9.26076 1.15305L10.6934 0.431418C11.1687 0.192026 11.7481 0.380553 11.9914 0.853785L12.7747 2.37672C12.9108 2.64131 13.1608 2.82875 13.453 2.88514L15.0722 3.19771C15.574 3.29457 15.9144 3.76441 15.8501 4.27142L15.6208 6.07936C15.5852 6.36004 15.674 6.64226 15.8639 6.85197L17.0607 8.17357C17.3951 8.54288 17.3951 9.10556 17.0607 9.47486L15.8639 10.7965C15.674 11.0062 15.5852 11.2884 15.6208 11.5691L15.8501 13.377C15.9144 13.884 15.574 14.3539 15.0722 14.4507L13.453 14.7633C13.1608 14.8197 12.9108 15.0071 12.7747 15.2717L11.9914 16.7947C11.7481 17.2679 11.1687 17.4564 10.6934 17.217L9.26076 16.4954Z" fill="#224A22"/>
<path fill-rule="evenodd" clip-rule="evenodd" d="M7.30219 9.80679L5.89485 8.39951L4.65381 9.64056L6.06115 11.0479L6.05898 11.05L7.30002 12.2911L7.30219 12.2889L7.30433 12.2911L8.54537 11.05L8.54324 11.0479L12.9731 6.618L11.732 5.37695L7.30219 9.80679Z" fill="white"/>
</g>
<defs>
<clipPath id="clip0_1824_579">
<rect width="17.6504" height="17.6504" fill="white"/>
</clipPath>
</defs>
</svg>
